<svg width="102" height="148" viewBox="0 0 102 148" fill="none" xmlns="http://www.w3.org/2000/svg">
<path d="M48.6529 1.12977C72.9336 27.5664 12.2318 61.1206 15.2669 72.3053C-13.0606 68.2382 65.8517 28.5832 48.6529 1.12977Z" fill="#AB2222"/>
<path d="M50.5472 2.75782C50.2801 2.21068 49.9771 1.66787 49.6367 1.12977C50.0472 1.63259 50.348 2.17632 50.5472 2.75782C63.8713 30.0469 -11.9373 68.1294 16.0229 72.1054C-36.2897 76.0355 56.7763 20.9378 50.5472 2.75782Z" fill="#FE3636"/>
<path d="M19.5227 90.5836C14.3908 65.4215 88.2909 40.2594 71.8686 0C97.5283 40.2594 -9.21639 99.642 54.42 97.629C54.42 97.629 24.6547 115.746 19.5227 90.5836Z" fill="url(#paint0_linear_23_12)"/>
<path d="M71.8657 0C73.5062 2.60021 74.6034 5.2797 75.237 8.01704C95.2468 66.2789 5.55824 93.3931 54.4853 98.2399C-4.83338 100.135 84.4749 47.9274 75.237 8.01704C74.3407 5.40745 73.2244 2.73537 71.8657 0Z" fill="url(#paint1_linear_23_12)"/>
<path d="M23.823 76.8244C0.463683 97.9517 6.45301 137.124 39.7741 128.411C9.22945 173.562 -15.7966 105.605 23.823 76.8244Z" fill="#F49A2B"/>
<path d="M24.0478 146.511C20.2215 146.066 16.3358 144.623 12.4667 141.958C16.4545 144.031 20.3184 145.526 24.0478 146.511C62.5275 150.982 94.9951 54.4761 44.0417 84.0471C112.371 30.2895 87.95 163.378 24.0478 146.511Z" fill="#F49A2B"/>
<path d="M31.1789 129.807C6.18339 130.323 3.25032 96.092 23.8501 76.8244C16.5633 88.8564 21.873 98.0903 26.8157 103.154C13.3771 119.98 21.9291 128.719 31.1789 129.807C33.7714 129.754 36.6012 129.327 39.6667 128.47C37.2472 129.709 34.1764 130.16 31.1789 129.807Z" fill="#C75C04"/>
<path d="M44.8411 84.4787C99.035 53.2124 55.8806 169.2 14.7333 142.977C39.8231 155.08 67.9236 71.367 44.8411 84.4787Z" fill="#C75C04"/>
<path d="M84.1822 69.9085C104.512 78.9429 112.644 60.8741 80.1162 41.8015L77.0667 48.8283C84.1822 54.8512 106.545 68.9047 84.1822 69.9085Z" fill="url(#paint2_linear_23_12)"/>
<path d="M85.0272 69.9754C101.391 70.9943 97.2999 60.806 77.8682 48.5802L74.8 53.6743C81.9591 59.7872 94.2318 63.8625 85.0272 69.9754Z" fill="url(#paint3_linear_23_12)"/>
<defs>
<linearGradient id="paint0_linear_23_12" x1="58.5256" y1="45.2918" x2="27.6437" y2="101.166" gradientUnits="userSpaceOnUse">
<stop offset="0.118208" stop-color="#FE3636"/>
<stop offset="0.679938" stop-color="#F49A2B"/>
</linearGradient>
<linearGradient id="paint1_linear_23_12" x1="79.0223" y1="-1.01278" x2="56.5071" y2="98.3823" gradientUnits="userSpaceOnUse">
<stop offset="0.416093" stop-color="#AB2222"/>
<stop offset="0.884611" stop-color="#C75C04"/>
</linearGradient>
<linearGradient id="paint2_linear_23_12" x1="89.5333" y1="41.8015" x2="88.28" y2="79.9477" gradientUnits="userSpaceOnUse">
<stop offset="0.560072" stop-color="#AB2222"/>
<stop offset="0.903019" stop-color="#F49A2B"/>
</linearGradient>
<linearGradient id="paint3_linear_23_12" x1="85" y1="48.5802" x2="85.027" y2="81.1825" gradientUnits="userSpaceOnUse">
<stop offset="0.397275" stop-color="#FE3636"/>
<stop offset="0.671067" stop-color="#F49A2B"/>
</linearGradient>
</defs>
</svg>
