<svg width="53" height="76" viewBox="0 0 53 76" fill="none" xmlns="http://www.w3.org/2000/svg">
<path d="M25.506 0.520737C38.0678 14.0599 6.66319 31.2442 8.23341 36.9723C-6.42207 34.8894 34.4039 14.5806 25.506 0.520737Z" fill="#AB2222"/>
<path d="M25.9738 1.35687C25.8365 1.07587 25.6809 0.797096 25.506 0.520737C25.7169 0.778976 25.8714 1.05822 25.9738 1.35687C32.8204 15.372 -6.13401 34.9303 8.23341 36.9723C-18.6475 38.9907 29.1746 10.6937 25.9738 1.35687Z" fill="#FE3636"/>
<path d="M10.3271 46.8663C7.71002 33.8479 45.3955 20.8295 37.021 0C50.1062 20.8295 -4.32849 51.553 28.123 50.5115C28.123 50.5115 12.9441 59.8848 10.3271 46.8663Z" fill="url(#paint0_linear_17_68)"/>
<path d="M37.021 0C37.8608 1.33694 38.4226 2.71464 38.747 4.12209C48.9911 34.0783 3.07446 48.0194 28.123 50.5115C-2.2456 51.4861 43.4764 24.6426 38.747 4.12209C38.2881 2.78033 37.7166 1.40643 37.021 0Z" fill="url(#paint1_linear_17_68)"/>
<path d="M12.4207 39.576C0.424939 50.4727 3.50065 70.6764 20.6121 66.1825C4.92645 89.4697 -7.92522 54.4202 12.4207 39.576Z" fill="#F49A2B"/>
<path d="M12.6145 75.2366C10.6483 75.0087 8.65145 74.269 6.6632 72.9032C8.71245 73.9657 10.698 74.732 12.6145 75.2366C32.3884 77.5286 49.0728 28.0647 22.8889 43.2212C58.0018 15.6679 45.4525 83.8821 12.6145 75.2366Z" fill="#F49A2B"/>
<path d="M16.3012 66.8212C3.06654 67.0861 1.51354 49.4839 12.4207 39.576C8.56249 45.7632 11.3739 50.5115 13.9909 53.1152C6.87544 61.7675 11.4036 66.2614 16.3012 66.8212C17.6738 66.7937 19.1721 66.574 20.7953 66.1336C19.5142 66.7709 17.8883 67.0026 16.3012 66.8212Z" fill="#C75C04"/>
<path d="M23.4123 43.2212C51.6765 27.0783 29.1698 86.9631 7.71002 73.4239C20.7953 79.6728 35.4508 36.4516 23.4123 43.2212Z" fill="#C75C04"/>
<path d="M43.8253 35.9309C54.2935 40.6175 58.4808 31.2442 41.7317 21.3502L40.1615 24.9954C43.8253 28.1198 55.3404 35.4101 43.8253 35.9309Z" fill="url(#paint2_linear_17_68)"/>
<path d="M43.8253 35.9309C52.1999 36.4516 50.1063 31.2442 40.1615 24.9954L38.5912 27.5991C42.2551 30.7235 48.536 32.8064 43.8253 35.9309Z" fill="url(#paint3_linear_17_68)"/>
<defs>
<linearGradient id="paint0_linear_17_68" x1="30.2167" y1="23.4332" x2="14.1167" y2="52.1442" gradientUnits="userSpaceOnUse">
<stop offset="0.118208" stop-color="#FE3636"/>
<stop offset="0.679938" stop-color="#F49A2B"/>
</linearGradient>
<linearGradient id="paint1_linear_17_68" x1="40.6849" y1="-0.520735" x2="29.0633" y2="50.5632" gradientUnits="userSpaceOnUse">
<stop offset="0.416093" stop-color="#AB2222"/>
<stop offset="0.884611" stop-color="#C75C04"/>
</linearGradient>
<linearGradient id="paint2_linear_17_68" x1="46.5807" y1="21.3502" x2="45.9257" y2="41.1385" gradientUnits="userSpaceOnUse">
<stop offset="0.560072" stop-color="#AB2222"/>
<stop offset="0.903019" stop-color="#F49A2B"/>
</linearGradient>
<linearGradient id="paint3_linear_17_68" x1="43.8114" y1="24.9954" x2="43.8252" y2="41.659" gradientUnits="userSpaceOnUse">
<stop offset="0.397275" stop-color="#FE3636"/>
<stop offset="0.671067" stop-color="#F49A2B"/>
</linearGradient>
</defs>
</svg>
